Coordinates
version=1
nRows=17
nColumns=38
inDegrees=no

Units are S.I. units (second, meters, Newtons, ...)
If the header above contains a line with 'inDegrees', this indicates whether rotational values are in degrees (yes) or radians (no).

endheader
time	pelvis_tilt	pelvis_list	pelvis_rotation	pelvis_tx	pelvis_ty	pelvis_tz	hip_flexion_r	hip_adduction_r	hip_rotation_r	knee_angle_r	ankle_angle_r	subtalar_angle_r	mtp_angle_r	hip_flexion_l	hip_adduction_l	hip_rotation_l	knee_angle_l	ankle_angle_l	subtalar_angle_l	mtp_angle_l	lumbar_extension	lumbar_bending	lumbar_rotation	arm_flex_r	arm_add_r	arm_rot_r	elbow_flex_r	pro_sup_r	wrist_flex_r	wrist_dev_r	arm_flex_l	arm_add_l	arm_rot_l	elbow_flex_l	pro_sup_l	wrist_flex_l	wrist_dev_l
21.68	2.91609	1.35454	-1.22338	0.653677	-0.202523	0.949907	-0.28261	0.0417794	-0.040621	0.252834	-0.197023	0	0	-0.27461	-0.111406	-0.0581724	0.302833	-0.127958	0	0	-0.271834	0.0931269	0.0315778	-0.0226667	-0.474194	0.3859	1.32355	1.5708	0	0	0.1464	-0.277002	0.498537	1.01328	1.5708	0	0
21.69	2.90747	1.35526	-1.21698	0.653961	-0.202326	0.949521	-0.28093	0.0429792	-0.0385134	0.253887	-0.196001	0	0	-0.273222	-0.112886	-0.0602215	0.305241	-0.125821	0	0	-0.269569	0.0945169	0.0293157	-0.0204697	-0.468326	0.410016	1.26788	1.5708	0	0	0.141103	-0.273581	0.505059	0.978803	1.5708	0	0
21.7	2.90649	1.35409	-1.21831	0.65411	-0.202154	0.949346	-0.281536	0.0426516	-0.038458	0.255121	-0.194796	0	0	-0.274914	-0.11305	-0.062853	0.30615	-0.124162	0	0	-0.269732	0.095293	0.0272563	-0.0188862	-0.46279	0.430989	1.21507	1.5708	0	0	0.136278	-0.269785	0.511389	0.944597	1.5708	0	0
21.71	2.90456	1.35186	-1.21868	0.654293	-0.202046	0.949282	-0.283373	0.042996	-0.0388918	0.255621	-0.19432	0	0	-0.277813	-0.113889	-0.0655491	0.306414	-0.122844	0	0	-0.271086	0.0967665	0.025542	-0.017972	-0.457038	0.448471	1.16411	1.5708	0	0	0.131797	-0.265628	0.516759	0.910961	1.5708	0	0
21.72	2.90395	1.34942	-1.22027	0.654457	-0.20193	0.949263	-0.285991	0.0432915	-0.0389494	0.25516	-0.194236	0	0	-0.281134	-0.114525	-0.0684152	0.306371	-0.12177	0	0	-0.272853	0.0982358	0.0238463	-0.0173336	-0.450631	0.463517	1.11388	1.5708	0	0	0.127339	-0.261395	0.521315	0.878578	1.5708	0	0
21.73	2.90466	1.3469	-1.22296	0.65459	-0.201852	0.949249	-0.288835	0.0433846	-0.039087	0.25454	-0.194241	0	0	-0.284546	-0.114856	-0.0707615	0.306295	-0.120926	0	0	-0.275245	0.0993725	0.02218	-0.0179468	-0.443308	0.473918	1.0651	1.5708	0	0	0.123025	-0.257036	0.524942	0.847376	1.5708	0	0
21.74	2.90608	1.34437	-1.22606	0.654677	-0.201832	0.949222	-0.291583	0.0433095	-0.0394715	0.254256	-0.194183	0	0	-0.287855	-0.115099	-0.0729551	0.306259	-0.120353	0	0	-0.277969	0.100374	0.0206955	-0.0197039	-0.435731	0.480487	1.01819	1.5708	0	0	0.119453	-0.252593	0.528762	0.816506	1.5708	0	0
21.75	2.90737	1.34206	-1.22891	0.654728	-0.201808	0.949175	-0.294083	0.0431826	-0.0396736	0.253989	-0.194126	0	0	-0.290823	-0.115299	-0.0751546	0.306364	-0.119728	0	0	-0.280469	0.101574	0.0194628	-0.0225074	-0.427864	0.48288	0.972901	1.5708	0	0	0.116316	-0.247852	0.532493	0.786384	1.5708	0	0
21.76	2.90789	1.33971	-1.231	0.654806	-0.201781	0.949134	-0.296505	0.0432861	-0.040014	0.253794	-0.194223	0	0	-0.293879	-0.115647	-0.0769486	0.306356	-0.118917	0	0	-0.282923	0.102995	0.0182657	-0.0244559	-0.42072	0.487107	0.929141	1.5708	0	0	0.113675	-0.243378	0.536984	0.75697	1.5708	0	0
21.77	2.9073	1.3374	-1.23201	0.654975	-0.201816	0.949109	-0.29844	0.0437678	-0.040994	0.254049	-0.194379	0	0	-0.296891	-0.116186	-0.0775136	0.306173	-0.117791	0	0	-0.285619	0.104316	0.0171867	-0.0263676	-0.414036	0.490536	0.887815	1.5708	0	0	0.111862	-0.239399	0.542945	0.728038	1.5708	0	0
21.78	2.90672	1.3359	-1.23304	0.655131	-0.201958	0.949069	-0.298613	0.0438326	-0.0433664	0.256081	-0.194147	0	0	-0.298621	-0.11645	-0.078281	0.306536	-0.11687	0	0	-0.287685	0.105467	0.0162842	-0.0288321	-0.407889	0.491658	0.84936	1.5708	0	0	0.110714	-0.236054	0.552086	0.700478	1.5708	0	0
21.79	2.90931	1.33431	-1.2367	0.655228	-0.202067	0.949043	-0.299721	0.0433911	-0.044595	0.257275	-0.193176	0	0	-0.300824	-0.116176	-0.079172	0.306278	-0.116467	0	0	-0.289927	0.105824	0.0147675	-0.0315698	-0.402076	0.491933	0.813807	1.5708	0	0	0.109854	-0.232944	0.561893	0.674105	1.5708	0	0
21.8	2.9131	1.33246	-1.24151	0.65527	-0.202106	0.949068	-0.301787	0.0427252	-0.0447144	0.257431	-0.192529	0	0	-0.303881	-0.115715	-0.0809824	0.304873	-0.116664	0	0	-0.292549	0.105858	0.0127128	-0.0341853	-0.396773	0.492269	0.781545	1.5708	0	0	0.108167	-0.230105	0.569392	0.650026	1.5708	0	0
21.81	2.91473	1.33083	-1.24407	0.655275	-0.202167	0.949077	-0.303535	0.042534	-0.0440319	0.257276	-0.192179	0	0	-0.306479	-0.115649	-0.0826122	0.303554	-0.116775	0	0	-0.294802	0.106361	0.0104394	-0.0365622	-0.392561	0.493585	0.753022	1.5708	0	0	0.106242	-0.227559	0.576089	0.627672	1.5708	0	0
21.82	2.91433	1.32958	-1.24479	0.655325	-0.202199	0.949052	-0.304826	0.0427979	-0.0421989	0.256983	-0.191898	0	0	-0.308705	-0.115656	-0.0825636	0.302416	-0.116452	0	0	-0.296346	0.107256	0.00821132	-0.0390261	-0.389429	0.495743	0.72866	1.5708	0	0	0.103909	-0.225613	0.583182	0.60808	1.5708	0	0
21.83	2.91502	1.32888	-1.24622	0.655288	-0.202221	0.949039	-0.306014	0.0427021	-0.0392672	0.256127	-0.191704	0	0	-0.310127	-0.115331	-0.083072	0.301692	-0.116469	0	0	-0.297041	0.107951	0.00554465	-0.0416364	-0.387305	0.498781	0.70821	1.5708	0	0	0.101446	-0.2242	0.59149	0.59062	1.5708	0	0
21.84	2.91675	1.32816	-1.24855	0.655171	-0.202273	0.949067	-0.307765	0.0424119	-0.0341278	0.254379	-0.191709	0	0	-0.311554	-0.114774	-0.0842161	0.300731	-0.11684	0	0	-0.298131	0.108228	0.00300467	-0.044253	-0.386197	0.502664	0.69192	1.5708	0	0	0.0993996	-0.222767	0.599089	0.575124	1.5708	0	0
